<?xml version="1.0" encoding="iso-8859-1"?>
<!-- Generator: Adobe Illustrator 16.0.0, SVG Export Plug-In . SVG Version: 6.00 Build 0)  -->
<!DOCTYPE svg PUBLIC "-//W3C//DTD SVG 1.1//EN" "http://www.w3.org/Graphics/SVG/1.1/DTD/svg11.dtd">
<svg xmlns="http://www.w3.org/2000/svg" xmlns:xlink="http://www.w3.org/1999/xlink" version="1.1" id="Capa_1" x="0px" y="0px" width="512px" height="512px" viewBox="0 0 350.951 350.95" style="enable-background:new 0 0 350.951 350.95;" xml:space="preserve">
<g>
	<g>
		<g>
			<path d="M193.205,82.434c4.095-4.23,6.406-9.857,6.406-15.792c0-12.598-10.25-22.842-22.836-22.842     c-12.592,0-22.83,10.244-22.83,22.842c0,7.098,3.209,13.577,8.713,17.876L85.743,346.303l15.855,4.647l7.455-25.334     l109.678-97.698l34.642,117.917l1.525,5.109l15.84-4.647L193.205,82.434z M166.894,128.716L178.24,90.12l6.624,22.56     L166.894,128.716z M163.525,153.864l26.49-23.635l17.498,59.564L163.525,153.864z M210.228,213.351l-92.372,82.277     l37.374-127.214L210.228,213.351z" fill="#FFFFFF"/>
		</g>
		<g>
			<path d="M212.341,58.854c0,4.062-1.068,8.085-3.057,11.631l-0.342,1.165l3.843,4.513l1.063-1.748     c2.906-4.699,4.432-10.091,4.432-15.561c0-5.209-1.399-10.35-4.042-14.883l-0.721-1.229l-1.249,0.7     c-0.816,0.451-1.663,0.837-2.533,1.168l-1.646,0.604l0.895,1.507C211.176,50.393,212.341,54.584,212.341,58.854z" fill="#FFFFFF"/>
		</g>
		<g>
			<path d="M222.082,88.097c0.222,0.228,0.444,0.441,0.66,0.676l1.129,1.249l1.069-1.315c6.947-8.442,10.767-19.05,10.767-29.847     c0-9.821-3.062-19.278-8.857-27.376l-1.177-1.63l-1.189,1.619c-0.618,0.847-1.249,1.702-1.903,2.516l-0.679,0.841l0.612,0.886     c4.75,6.905,7.254,14.892,7.254,23.14c0,9.454-3.146,18.365-9.091,25.781l-0.709,0.88l1.237,1.666     C221.493,87.493,221.787,87.802,222.082,88.097z" fill="#FFFFFF"/>
		</g>
		<g>
			<path d="M248.707,58.854c0,14.24-5.188,28.117-14.573,39.07l-0.931,1.087l1.068,0.952c0.528,0.462,1.068,0.919,1.598,1.36     l1.855,1.573l0.942-1.099c10.311-12.016,15.984-27.271,15.984-42.938c0-16.192-5.98-31.805-16.801-43.94l-1.195-1.372     l-1.062,1.483c-0.612,0.841-1.207,1.714-1.813,2.612l-0.643,0.916l0.738,0.85C243.447,30.369,248.707,44.364,248.707,58.854z" fill="#FFFFFF"/>
		</g>
		<g>
			<path d="M267.633,58.854c0,18.711-6.701,36.893-18.86,51.2l-0.967,1.15l1.171,0.931c0.679,0.564,1.369,1.147,2.041,1.727     l1.346,1.162l0.948-1.12c13.078-15.378,20.272-34.924,20.272-55.049c0-21.485-8.064-42.016-22.704-57.814l-0.961-1.033     l-1.068,0.931c-0.505,0.429-1.01,0.901-1.502,1.357l-1.861,1.702l0.997,1.09C260.127,19.768,267.633,38.863,267.633,58.854z" fill="#FFFFFF"/>
		</g>
		<g>
			<path d="M138.167,76.168l4.014-4.759l-0.516-0.925c-2-3.54-3.056-7.563-3.056-11.631c0-4.27,1.162-8.461,3.351-12.139     l0.897-1.508l-1.639-0.604c-0.868-0.33-1.724-0.723-2.54-1.167l-1.249-0.7l-0.714,1.228c-2.654,4.534-4.044,9.673-4.044,14.883     c0,5.47,1.531,10.863,4.425,15.562L138.167,76.168z" fill="#FFFFFF"/>
		</g>
		<g>
			<path d="M126.01,88.706l1.063,1.315l1.138-1.249c0.21-0.234,0.429-0.448,0.657-0.676c0.297-0.294,0.592-0.604,0.949-1.021     l1.167-1.561l-0.696-0.88c-5.957-7.416-9.112-16.327-9.112-25.781c0-8.248,2.51-16.24,7.257-23.14l0.615-0.886l-0.678-0.841     c-0.658-0.813-1.291-1.669-1.907-2.516l-1.186-1.625l-1.168,1.63c-5.804,8.098-8.872,17.555-8.872,27.376     C115.238,69.656,119.069,80.264,126.01,88.706z" fill="#FFFFFF"/>
		</g>
		<g>
			<path d="M112.292,101.791l0.94,1.099l1.846-1.573c0.535-0.441,1.063-0.898,1.591-1.36l1.075-0.952l-0.94-1.09     c-9.389-10.949-14.562-24.826-14.562-39.067c0-14.49,5.272-28.484,14.832-39.452l0.732-0.85l-0.627-0.903     c-0.604-0.898-1.204-1.771-1.802-2.612l-1.063-1.483l-1.213,1.372c-10.833,12.142-16.798,27.754-16.798,43.94     C96.305,74.525,101.979,89.775,112.292,101.791z" fill="#FFFFFF"/>
		</g>
		<g>
			<path d="M98.821,114.812l1.111-0.958c0.679-0.58,1.36-1.162,2.054-1.727l1.162-0.931l-0.964-1.15     c-12.175-14.306-18.87-32.489-18.87-51.2c0-19.99,7.518-39.085,21.158-53.767l0.997-1.09l-1.858-1.702     c-0.505-0.456-1.009-0.928-1.507-1.36L101.034,0l-0.946,1.033C85.433,16.838,77.366,37.368,77.366,58.847     c0,20.125,7.2,39.665,20.278,55.049L98.821,114.812z" fill="#FFFFFF"/>
		</g>
	</g>
</g>
<g>
</g>
<g>
</g>
<g>
</g>
<g>
</g>
<g>
</g>
<g>
</g>
<g>
</g>
<g>
</g>
<g>
</g>
<g>
</g>
<g>
</g>
<g>
</g>
<g>
</g>
<g>
</g>
<g>
</g>
</svg>
